<?xml version="1.0" encoding="UTF-8"?>
<svg width="149px" height="58px" viewBox="0 0 149 58" version="1.1" xmlns="http://www.w3.org/2000/svg" xmlns:xlink="http://www.w3.org/1999/xlink">
    <!-- Generator: Sketch 52.6 (67491) - http://www.bohemiancoding.com/sketch -->
    <title>AiRXOS-logo-auth0 Copy</title>
    <desc>Created with Sketch.</desc>
    <defs>
        <polygon id="path-1" points="0 0.199683453 43.8574604 0.199683453 43.8574604 35.9844604 0 35.9844604"></polygon>
    </defs>
    <g id="AiRXOS-logo-auth0-Copy" stroke="none" stroke-width="1" fill="none" fill-rule="evenodd">
        <g id="CS16668-40_AiRXOS_Logo_Color-Copy-3" transform="translate(0.000000, 11.000000)">
            <g id="Group-6">
                <g id="Group-2-Copy-2">
                    <g id="Group-4">
                        <mask id="mask-2" fill="white">
                            <use xlink:href="#path-1"></use>
                        </mask>
                        <g id="Clip-2"></g>
                        <path d="M10.8568675,19.7243741 C10.5043373,19.7243741 10.1475663,19.6334676 9.82366265,19.4431079 C8.87368675,18.8844604 8.56701205,17.6791079 9.13874699,16.7508777 L17.9072048,2.51689209 C18.7980723,1.07015827 20.3621928,0.203827338 22.0903855,0.199942446 C22.0943614,0.199683453 22.0983373,0.199683453 22.1025783,0.199683453 C23.8265301,0.199683453 25.3890602,1.05798561 26.285759,2.49772662 L35.1218072,16.6915683 C35.6977831,17.6172086 35.3969398,18.8241151 34.4498795,19.3869065 C33.5038795,19.9499568 32.2681687,19.656259 31.6911325,18.7306187 L22.8550843,4.53651799 C22.6313735,4.17729496 22.2883855,4.12290647 22.1023133,4.12290647 C22.1015181,4.12290647 22.100988,4.12290647 22.1001928,4.12290647 C21.9143855,4.12342446 21.5700723,4.17807194 21.3474217,4.53988489 L12.5784337,18.7738705 C12.2017831,19.3856115 11.5378072,19.7243741 10.8568675,19.7243741" id="Fill-1" fill="#2B5E67" mask="url(#mask-2)"></path>
                        <path d="M21.9313494,30.0141583 C33.8611807,30.0141583 35.3879277,33.1891511 40.1780964,35.7218417 C42.4957831,36.9468777 44.8452771,33.8568345 43.4274699,31.6867338 L38.6590361,24.9459281 C38.148,24.1632518 37.2632289,23.689554 36.3127229,23.689554 L7.5499759,23.689554 C6.59973494,23.689554 5.71496386,24.1632518 5.20366265,24.9459281 L0.435228916,31.6867338 C-0.982578313,33.8568345 1.31708434,36.8528633 3.68460241,35.7218417 C8.47371084,33.4336403 11.7713253,30.0141583 21.9313494,30.0141583" id="Fill-3" fill="#2B5E67" mask="url(#mask-2)"></path>
                    </g>
                    <path d="M20.8775584,13.6758595 C21.3766012,12.8206905 22.6236686,12.8206905 23.1224416,13.6758595 L25.969413,18.5582279 C26.468186,19.4136639 25.8445174,20.4827586 24.8469714,20.4827586 L19.1530286,20.4827586 C18.1554826,20.4827586 17.531814,19.4136639 18.030587,18.5582279 L20.8775584,13.6758595" id="Fill-5" fill="#2B5E67"></path>
                </g>
                <g id="Group-5" transform="translate(54.000000, 9.000000)" fill="#4D4E4C">
                    <path d="M10.3243946,11.8799853 L5.41943998,11.8799853 L7.81128058,5.7984933 L10.3243946,11.8799853 Z M9.48739604,1.84295894 C9.23425759,1.14364817 8.70547361,0.750236292 7.9574442,0.704496873 L7.87800745,0.703703704 C7.36855308,0.703703704 6.67295193,0.896972577 6.25352588,1.81810631 L0.142191785,16.8428444 C0.047662051,17.0546206 0,17.2899274 0,17.5418908 C0,17.8996101 0.131335429,18.5460429 1.0075228,18.8648969 C1.21485272,18.954525 1.43595168,19 1.66552389,19 C2.01054418,19 2.64180157,18.8728286 2.99052891,18.0185854 L4.21041263,14.9498141 L11.5755234,14.9498141 L12.8441284,18.0220225 C13.1910022,18.8728286 13.8222596,19 14.1678094,19 C14.4201535,19 14.6558159,18.9521455 14.8546726,18.8635749 C15.7062345,18.51696 15.8333333,17.886655 15.8333333,17.5418908 C15.8333333,17.290985 15.7856713,17.0559425 15.6959078,16.8542132 L9.48739604,1.84295894 Z" id="Fill-6"></path>
                    <path d="M21.4477284,0 L20.6297082,0 C20.19669,0 19.8629051,0.109167144 19.6280626,0.326330739 C19.3926381,0.544079681 19.2753623,0.87041042 19.2753623,1.30532296 L19.2753623,2.15641694 C19.2753623,2.57289106 19.3926381,2.90419724 19.6280626,3.14975015 C19.8629051,3.3958884 20.19669,3.51851852 20.6297082,3.51851852 L21.4477284,3.51851852 C21.8615402,3.51851852 22.1764096,3.40057118 22.3929187,3.16379847 C22.6088458,2.92761111 22.7173913,2.59191482 22.7173913,2.15641694 L22.7173913,1.30532296 C22.7173913,0.435497884 22.2942673,0 21.4477284,0" id="Fill-7"></path>
                    <path d="M21.3405797,4.92592593 C20.9225089,4.92592593 20.5850644,5.06767496 20.3370202,5.3468938 C20.0894502,5.62664755 19.9637681,6.00723033 19.9637681,6.47874644 L19.9637681,17.4471795 C19.9637681,17.9189631 20.0896873,18.2998133 20.3374944,18.5790321 C20.5850644,18.858251 20.9225089,19 21.3405797,19 C21.7588876,19 22.0963321,18.8579835 22.3441392,18.5787647 C22.5914721,18.2992784 22.7173913,17.9186956 22.7173913,17.4471795 L22.7173913,6.47874644 C22.7173913,6.00776523 22.5917092,5.62718245 22.343665,5.34662635 C22.0958579,5.06740751 21.7581762,4.92592593 21.3405797,4.92592593" id="Fill-8"></path>
                    <path d="M37.6526875,5.93334009 L37.6526875,6.69182901 C37.6526875,7.52384624 37.4964849,8.10503284 37.1884188,8.4200052 C36.8803526,8.73471683 36.3111831,8.89428892 35.4967348,8.89428892 L31.1881474,8.89428892 L31.1881474,3.73114091 L35.4967348,3.73114091 C36.3091413,3.73114091 36.8772898,3.89384187 37.1851008,4.21481123 C37.4952088,4.53864871 37.6526875,5.11696718 37.6526875,5.93334009 Z M35.4967348,0.703703704 L29.7062649,0.703703704 C29.2565445,0.703703704 28.8930928,0.841895222 28.6261191,1.11436718 C28.3596559,1.3865784 28.2246377,1.75787032 28.2246377,2.21755268 L28.2246377,17.2334952 C28.2246377,17.6934383 28.3599111,18.0647302 28.6261191,18.33642 C28.8925823,18.6088919 29.256034,18.7473442 29.7062649,18.7473442 C30.1564959,18.7473442 30.5196923,18.6088919 30.7861555,18.3366807 C31.052874,18.0642088 31.1881474,17.6931776 31.1881474,17.2334952 L31.1881474,11.9217261 L33.9594668,11.9217261 L37.6723405,18.2347319 C38.0666754,18.8670233 38.550597,19 38.886994,19 C39.1371223,19 39.3992466,18.9118703 39.6810237,18.7350895 C40.3106834,18.3551932 40.4431493,17.8326728 40.4431493,17.4608594 C40.4431493,17.1766542 40.3716841,16.9112222 40.231306,16.6721248 L37.3086335,11.7034878 C38.2749454,11.4341447 39.0465146,10.9228361 39.6085376,10.1784271 L39.6085376,10.1781664 C40.2769927,9.29191546 40.615942,8.11885199 40.615942,6.69182901 L40.615942,5.93334009 C40.615942,4.26643749 40.1687739,2.96404761 39.2861784,2.0621524 C38.4033276,1.16077867 37.128439,0.703703704 35.4967348,0.703703704 Z" id="Fill-9"></path>
                    <path d="M57.826087,2.26439613 C57.826087,1.94686409 57.7077386,1.48418211 57.1453906,1.07596441 C56.8354674,0.828760034 56.5273492,0.703703704 56.2290288,0.703703704 C55.7986946,0.703703704 55.4096148,0.937952981 55.0661725,1.40777349 L50.930684,7.32058483 L46.8207217,1.41173933 C46.4205548,0.826644916 45.9659836,0.703703704 45.6550291,0.703703704 C45.3683116,0.703703704 45.0681863,0.805758129 44.7631622,1.00722308 L44.7368625,1.02599475 C44.1758037,1.45694997 44.057971,1.93708167 44.057971,2.26439613 C44.057971,2.54464921 44.1546608,2.83547789 44.3542286,3.15300992 L49.010553,9.88357862 L44.612326,16.5377387 C44.4104377,16.8370278 44.3078175,17.1574682 44.3078175,17.4905992 C44.3078175,17.8232014 44.4241032,18.3014824 44.9776847,18.6893421 L44.9998589,18.7038835 C45.3193221,18.9003251 45.6238306,19 45.9046178,19 C46.22898,19 46.694896,18.8807602 47.0752094,18.310736 L50.8639036,12.5536502 L54.8379845,18.2914356 C55.2371201,18.8770588 55.6922069,19 56.0039349,19 C56.312311,19 56.6163038,18.8947729 56.9104987,18.6864338 C57.4813555,18.2766298 57.600993,17.7819566 57.600993,17.4393076 C57.600993,17.1233619 57.4986307,16.811382 57.2933905,16.5073339 L52.7538675,9.95575701 L57.4834182,3.2101181 C57.7108327,2.90686311 57.826087,2.5885379 57.826087,2.26439613" id="Fill-10"></path>
                    <path d="M64.2724192,6.87861117 C64.2724192,6.02307081 64.3694407,5.3600006 64.5614139,4.90764289 C64.7332066,4.50234519 65.0095239,4.21972076 65.4066653,4.04390669 C65.814673,3.86359812 66.3991306,3.77212193 67.1530523,3.77212193 C67.2130763,3.77212193 67.2736177,3.77265069 67.3357115,3.7739726 L70.3454479,3.7739726 C71.1824201,3.7739726 71.8312999,3.87338026 72.2742354,4.06928737 C72.6713768,4.24510144 72.9479528,4.52799025 73.1197455,4.93328795 C73.31146,5.38617442 73.408999,6.04924464 73.408999,6.90425623 L73.408999,12.7997119 C73.408999,13.6708508 73.3119775,14.3376223 73.1207804,14.780991 C72.9484702,15.1804723 72.6749989,15.4599242 72.2843257,15.6357382 C71.850963,15.8311166 71.1987197,15.9299955 70.3454479,15.9299955 L67.3357115,15.9299955 C66.4824397,15.9299955 65.8299377,15.8311166 65.3963163,15.6357382 C65.0059018,15.4599242 64.7324305,15.1804723 64.5601203,14.780991 C64.369182,14.3381511 64.2724192,13.6716439 64.2724192,12.7997119 L64.2724192,6.87861117 Z M70.3454479,0.704232468 L67.3393336,0.704232468 C67.3049233,0.703968086 67.2707718,0.703703704 67.2366202,0.703703704 C65.2656607,0.703703704 63.7666137,1.20999535 62.7806165,2.20830202 C61.7770261,3.22485106 61.2681159,4.79580928 61.2681159,6.87861117 L61.2681159,12.7997119 C61.2681159,14.881985 61.772369,16.4526788 62.7666454,17.4686991 C63.7606631,18.484455 65.2980012,19 67.3357115,19 L70.3454479,19 C72.3831583,19 73.9204963,18.4847194 74.914514,17.4686991 C75.9085317,16.4526788 76.4130435,14.881985 76.4130435,12.7997119 L76.4130435,6.90425623 C76.4130435,4.82251187 75.9087904,3.25181803 74.914514,2.235269 C73.9199789,1.21951311 72.3826408,0.704232468 70.3454479,0.704232468 Z" id="Fill-11"></path>
                    <path d="M93.6453349,9.45077267 C92.746337,8.54523793 91.3795978,8.08599302 89.582652,8.08599302 L86.4271038,8.08599302 C85.7976741,8.08599302 85.3246831,8.0172517 85.020205,7.88161978 C84.7600862,7.76608148 84.5884235,7.59052671 84.4800188,7.32930969 C84.3516656,7.02023812 84.2865702,6.5406352 84.2865702,5.90424918 C84.2865702,5.28187582 84.3482533,4.80808947 84.470832,4.49610962 C84.5703123,4.24282428 84.7341006,4.07520121 84.9868699,3.96865216 C85.2937103,3.8391012 85.7695886,3.77353256 86.4016432,3.77353256 L89.429888,3.77353256 C90.3081498,3.77353256 90.7451809,3.900704 90.9567407,4.00698867 C91.2055728,4.13257377 91.3761855,4.36576549 91.4780282,4.71899014 C91.5454859,5.16184289 91.6985124,5.50554951 91.9326455,5.74085634 C92.1893521,6.00022264 92.5547258,6.13188872 93.018005,6.13188872 C93.5185565,6.13188872 93.9117532,5.98488804 94.186571,5.6956457 C94.3839568,5.4878354 94.6010287,5.10817178 94.5094228,4.46358968 C94.0590052,1.96880844 92.3499905,0.703703704 89.429888,0.703703704 L86.4016432,0.703703704 C84.6892163,0.703703704 83.3865224,1.14126866 82.5295216,2.00423666 C81.6730456,2.86746904 81.2386394,4.17937075 81.2386394,5.90424918 C81.2386394,7.64631294 81.6772453,8.97143414 82.5423831,9.84259821 C83.4072585,10.7140267 84.714152,11.1560863 86.4271038,11.1560863 L89.582652,11.1560863 C90.5081604,11.1560863 91.1625259,11.3223874 91.4748784,11.6367467 C91.787231,11.9513705 91.9523316,12.6194833 91.9523316,13.5686423 C91.9523316,14.2375483 91.8788369,14.7507287 91.7342098,15.0939065 C91.6111061,15.3849996 91.410833,15.5867289 91.1223663,15.7101989 C90.7821907,15.8558776 90.264053,15.9299068 89.582652,15.9299068 L85.9178905,15.9299068 C84.9175749,15.9299068 84.4230604,15.7778827 84.1842026,15.6501825 C83.8923236,15.4941925 83.7062245,15.2023063 83.6172434,14.7681784 C83.5308871,14.2906906 83.3705111,13.9446045 83.1264036,13.7100908 C82.8696971,13.4652659 82.5074731,13.3410028 82.0497061,13.3410028 C81.5662158,13.3410028 81.181681,13.4877391 80.9071257,13.7772458 C80.625221,14.0733623 80.506317,14.4749702 80.5535636,14.9709653 L80.5577633,15.0024277 C80.7806098,16.3505508 81.3512438,17.3684511 82.2533914,18.0281034 C83.1345406,18.6726855 84.3674144,19 85.9178905,19 L89.582652,19 C91.3788103,19 92.7450246,18.5455141 93.64376,17.6497618 C94.5435453,16.7526875 95,15.3797118 95,13.5686423 C95,11.7419738 94.5443328,10.3563074 93.6453349,9.45077267" id="Fill-12"></path>
                </g>
            </g>
        </g>
    </g>
</svg>